<svg width="3760" height="1487" xmlns="http://www.w3.org/2000/svg" xmlns:xlink="http://www.w3.org/1999/xlink" xml:space="preserve" overflow="hidden"><g transform="translate(-405 -688)"><path d="M758 1334C758 979.985 1197.88 693 1740.5 693 2283.12 693 2723 979.985 2723 1334 2723 1688.01 2283.12 1975 1740.5 1975 1197.88 1975 758 1688.01 758 1334Z" stroke="#042433" stroke-width="10.3125" stroke-miterlimit="8" fill="none" fill-rule="evenodd"/><path d="M1624 1334C1624 979.985 2063.66 693 2606 693 3148.34 693 3588 979.985 3588 1334 3588 1688.01 3148.34 1975 2606 1975 2063.66 1975 1624 1688.01 1624 1334Z" stroke="#042433" stroke-width="10.3125" stroke-miterlimit="8" fill="none" fill-rule="evenodd"/><text font-family="Calibri,Calibri_MSFontService,sans-serif" font-weight="700" font-size="128" text-decoration="underline" transform="matrix(1 0 0 1 482.308 855)">Safety</text><text font-family="Calibri,Calibri_MSFontService,sans-serif" font-weight="700" font-size="128" text-decoration="underline" transform="matrix(1 0 0 1 3449.67 857)">Security</text><text font-family="Calibri,Calibri_MSFontService,sans-serif" font-weight="700" font-size="110" transform="matrix(1 0 0 1 985.054 1056)">LTA Analysis</text><text font-family="Calibri,Calibri_MSFontService,sans-serif" font-weight="700" font-size="110" transform="matrix(1 0 0 1 1034.74 1188)">[RTNS’24]</text><text font-family="Calibri,Calibri_MSFontService,sans-serif" font-weight="400" font-size="110" transform="matrix(1 0 0 1 1130.07 1452)">Rasco</text><text font-family="Calibri,Calibri_MSFontService,sans-serif" font-weight="400" font-size="110" transform="matrix(1 0 0 1 967.34 1584)">[EMSOFT’25]</text><text font-family="Calibri,Calibri_MSFontService,sans-serif" font-weight="700" font-size="110" transform="matrix(1 0 0 1 1945.94 980)">GeoShield</text><text font-family="Calibri,Calibri_MSFontService,sans-serif" font-weight="700" font-size="110" transform="matrix(1 0 0 1 1830.21 1112)">[In submission]</text><text font-family="Calibri,Calibri_MSFontService,sans-serif" font-weight="700" font-size="110" transform="matrix(1 0 0 1 2910.31 1056)">VeriDB</text><text font-family="Calibri,Calibri_MSFontService,sans-serif" font-weight="700" font-size="110" transform="matrix(1 0 0 1 2752.83 1188)">[SIGMOD’ 21]</text><text font-family="Calibri,Calibri_MSFontService,sans-serif" font-weight="700" font-size="110" transform="matrix(1 0 0 1 2955.62 1452)">UEM</text><text font-family="Calibri,Calibri_MSFontService,sans-serif" font-weight="700" font-size="110" transform="matrix(1 0 0 1 2765.16 1584)">[SIGMOD’24]</text><text font-family="Calibri,Calibri_MSFontService,sans-serif" font-weight="700" font-size="110" transform="matrix(1 0 0 1 2017.55 1290)">STA</text><text font-family="Calibri,Calibri_MSFontService,sans-serif" font-weight="700" font-size="110" transform="matrix(1 0 0 1 2180.85 1290)">MP</text><text font-family="Calibri,Calibri_MSFontService,sans-serif" font-weight="700" font-size="110" transform="matrix(1 0 0 1 1828.79 1422)">[In submission]</text><text font-family="Calibri,Calibri_MSFontService,sans-serif" font-weight="400" font-size="110" transform="matrix(1 0 0 1 1860.09 1606)">RoboRebound</text><text font-family="Calibri,Calibri_MSFontService,sans-serif" font-weight="400" font-size="110" transform="matrix(1 0 0 1 1903.93 1738)">[Eurosys’25]</text><text font-family="Arial,Arial_MSFontService,sans-serif" font-weight="400" font-size="83" transform="matrix(1 0 0 1 3050.06 2004)">•</text><text font-family="Calibri,Calibri_MSFontService,sans-serif" font-weight="700" font-size="83" transform="matrix(1 0 0 1 3153.19 2004)">Lead / Student lead projects</text><text font-family="Arial,Arial_MSFontService,sans-serif" font-weight="400" font-size="83" transform="matrix(1 0 0 1 3050.06 2103)">•</text><text font-family="Calibri,Calibri_MSFontService,sans-serif" font-weight="400" font-size="83" transform="matrix(1 0 0 1 3153.19 2103)">Collaboration projects</text></g></svg>